# xmcd
#
# Track frame offsets:
#	150
#	18872
#	33296
#	49291
#	67275
#	84397
#	103760
#	120988
#	136127
#	150583
#	171280
#	188747
#	205515
#	218554
#
# Disc length: 3176 seconds
#
# Revision: 1
# Processed by: cddbd v1.5.2PL0 Copyright (c) Steve Scherf et al.
# Submitted via: audiograbber 1.83.01
#
DISCID=b40c660e
DTITLE=Various Artist - CDX 410
DYEAR=2006
DGENRE=Country
TTITLE0=Martina McBride - Anyway
TTITLE1=Miranda Lambert  - Crazy Ex-Girlfriend
TTITLE2=Aaron Tippin - He Believed
TTITLE3=Deana Carter - In A Heartbeat
TTITLE4=Dierks Bentley - Long Trip Alone
TTITLE5=Joan Osborne - Who Divided
TTITLE6=Mark Elliott - Not All Who Wander Are Lost
TTITLE7=Reckless Johnny Wales - They're Dyin' To come Home
TTITLE8=Leland Martin - Wayfaring Stranger
TTITLE9=Jimmy Glass  - Mom And Dad
TTITLE10=Brian Sauer - A Soldier's Christmas
TTITLE11=Gloria Gaynor - Christmas Prayer
TTITLE12=Brian Sauer - Red, White And Blue Christmas For You
TTITLE13=Tim Aaron - This Christmas Eve
EXTD=YEAR: 2006
EXTT0=
EXTT1=
EXTT2=
EXTT3=
EXTT4=
EXTT5=
EXTT6=
EXTT7=
EXTT8=
EXTT9=
EXTT10=
EXTT11=
EXTT12=
EXTT13=
PLAYORDER=
